<?xml version="1.0" encoding="utf-8"?>
<!-- Generator: Adobe Illustrator 28.3.0, SVG Export Plug-In . SVG Version: 6.00 Build 0)  -->
<svg version="1.1" id="Layer_1" xmlns="http://www.w3.org/2000/svg" xmlns:xlink="http://www.w3.org/1999/xlink" x="0px" y="0px"
	 viewBox="0 0 460.8 185.2" style="enable-background:new 0 0 460.8 185.2;" xml:space="preserve">
<style type="text/css">
	.st0{fill:#799B5F;}
	.st1{fill:#18301D;}
</style>
<path class="st0" d="M9.5,21.1h23.4l3.7,14.8l3.8,15l3.8-15l3.7-14.8h23.3v51.3H55.9l0.1-25.6l0.1-8.1l-2.1,8.1l-7,25.6H33.3
	l-7-25.6l-2.1-8.1l0.1,8.1l0.2,25.6h-15V21.1z"/>
<path class="st0" d="M91.9,21.1h21.2l18.8,51.3h-18.6l-2.9-9h-17l-2.9,9H72.9C72.9,72.4,91.9,21.1,91.9,21.1z M96.6,53.2h10.5
	l-5.3-16.9C101.9,36.2,96.6,53.2,96.6,53.2z"/>
<path class="st0" d="M133.6,21.1h24.3c16.9,0,27.7,8.7,27.7,25.7s-11,25.7-27.9,25.7h-24.1L133.6,21.1L133.6,21.1z M152,33.7V60h4.8
	c6.2,0,10-3.5,10-13.2s-3.8-13.1-10-13.1L152,33.7L152,33.7z"/>
<path class="st0" d="M188.6,21.1h45.1v11.8H207v7.9h19.9V52H207v8.9h26.8v11.4h-45.1V21.1z"/>
<path class="st0" d="M248.8,21.1h16.5l2.5,15.1l2.5,15.2l3.5-15.2l3.6-15.1h14.7l3.5,15.1l3.6,15.5l2.5-15.5l2.5-15.1h15.9
	l-10.8,51.3h-18.2l-3.4-14.7l-3.4-15.1l-3.2,15.1l-3.4,14.7h-18.1L248.8,21.1L248.8,21.1z"/>
<path class="st0" d="M322.6,21.1H341v51.3h-18.3V21.1z"/>
<path class="st0" d="M361.5,33.2h-17.6V21.1h53.6v12.2h-17.6v39.1h-18.4V33.2z"/>
<path class="st0" d="M400.4,21.1h18.4V40h14.3V21.1h18.4v51.3h-18.4V52.3h-14.3v20.1h-18.4V21.1z"/>
<path class="st1" d="M10.1,95.6h31.2l5,19.7l5.1,20l5.1-20l5-19.7h31.1V164H72l0.1-34.1l0.1-10.8l-2.7,10.8L60.2,164H41.9l-9.3-34.1
	l-2.7-10.9l0.1,10.9l0.2,34.1H10.1C10.1,164,10.1,95.6,10.1,95.6z"/>
<path class="st1" d="M120,95.6h28.3l25.1,68.4h-24.8l-3.8-12H122l-3.8,12H94.8C94.8,164,120,95.6,120,95.6z M126.3,138.4h14.1
	l-7-22.6L126.3,138.4L126.3,138.4z"/>
<path class="st1" d="M184.2,111.8h-23.5V95.6h71.4v16.2h-23.5V164h-24.5L184.2,111.8L184.2,111.8z"/>
<path class="st1" d="M279.6,125.3c-1.2-9.8-5.6-14.1-11.2-14.1c-6.9,0-11.3,5.4-11.3,18.7c0,13.3,4.4,18.5,11.2,18.5
	c6,0,10.4-4.4,11.3-14.7h24.1c-1.6,20.5-15.1,31.9-36,31.9c-21.9,0-35.9-12.6-35.9-35.8s14-35.8,35.9-35.8c20.6,0,34.3,11.2,36,31.3
	L279.6,125.3L279.6,125.3z"/>
<path class="st1" d="M307.5,95.6H332v25.2h19.1V95.6h24.5V164h-24.5v-26.8H332V164h-24.5C307.5,164,307.5,95.6,307.5,95.6z"/>
<path class="st1" d="M403,95.6h28.3l25.1,68.4h-24.8l-3.8-12H405l-3.8,12h-23.5L403,95.6L403,95.6z M409.3,138.4h14.1l-7-22.6
	L409.3,138.4L409.3,138.4z"/>
</svg>
