<?xml version="1.0" encoding="utf-8"?>
<!-- Generator: Adobe Illustrator 28.3.0, SVG Export Plug-In . SVG Version: 6.00 Build 0)  -->
<svg version="1.1" id="Layer_1" xmlns="http://www.w3.org/2000/svg" xmlns:xlink="http://www.w3.org/1999/xlink" x="0px" y="0px"
	 viewBox="0 0 734.35 387.45" style="enable-background:new 0 0 734.35 387.45;" xml:space="preserve">
<style type="text/css">
	.st0{fill:#5F3916;}
	.st1{fill:#182122;stroke:#000000;stroke-width:0.8082;stroke-miterlimit:10;}
	.st2{fill:#FFFFFF;stroke:#000000;stroke-width:0.8082;stroke-miterlimit:10;}
	.st3{fill:#1A1619;}
	.st4{fill:#FFFFFF;}
	.st5{fill:#182122;}
	.st6{fill:#CF6DAB;}
	.st7{fill:#E5B2D2;}
</style>
<path class="st0" d="M184.67,202.74c0,0-31.79,18.24-33.93,20.46s-21.18,6.37-10.46,13.72c10.72,7.35,10.41-4.33,10.41-4.33
	l32.76-19.02"/>
<path class="st0" d="M301.55,234.59c0-0.93,23.75,31.1,28.52,37.55c0.42,0.57,1.27,0.56,1.68-0.02c1.32-1.91,3.61-5.85,2.61-8.87
	c-1.38-4.14-32.45-42.81-32.45-42.81"/>
<path class="st0" d="M281.2,274.88c0.1,0.99,1.69,10.48,1.82,11.52c0.84,6.25,0.81,8.2,5.22,13.05c5.91,6.6,10.63,4,18.16,8.62
	c2.99,1.23-1.82,1.21-4.07,0.31c-6.63-2.13-13.08-5.03-17.94-10.22c-4.45-5.49-4.29-13.4-5.2-19.99c-0.41-4.44-0.57-8.87-0.59-13.32
	c0-1.08,1.66-1.24,1.79-0.11c1.38,9.55,1.97,19.64,5.28,28.69c3.58,6.13,11.38,9.05,17.69,11.73c3.09,1.19,6-0.7,9.27-0.47
	c12.69,0.57,4.99,20.71,1.52,27.25c-3.04,6.65-19.85,29.78-25.53,15.12c-1.2-4.82-0.75-9.74,1.11-14.22
	c1.76-4.11,4.55-7.8,6.5-11.63c0.28-0.52,0.68-1.57,0.68-1.98c-0.05,0.03,0.29,0.36,0.15,0.23c-0.6-0.31-1.21-0.63-1.69-0.96
	c-3.92-2.63-7.19-5.57-10.51-8.61c-4.81-4.77-10.24-9.45-12.84-15.99c-2.03-5.97-2.11-12.28-2.14-18.48c0,0,0-0.81,0-0.81
	c0.01-0.24-0.05-0.6,0.04-0.48c-0.51-1.02,8.93-10.7,9.47-9.63C279.39,264.5,281.08,274.1,281.2,274.88z"/>
<path class="st0" d="M195.83,282.74c-9.01,15.99-19.24,27.05-32.83,48.02c-0.32,0.49-1.72-0.73-1.46-1.46
	c9.17-16.71,21.49-31.36,33.03-46.42C194.88,282.49,195.45,282.43,195.83,282.74c0.37,0.3,0.44,0.84,0.17,1.22
	c-10.41,15.47-22.24,30.28-31.04,46.69c-0.06,0.16-0.15,0.35-0.15,0.42c-0.02,0.03-0.07,0.4-0.04-0.03
	c0.01-0.09-0.16-0.39-0.07-0.17l0.12,0.34c4.82,18.37-8.05,23.04-20.63,10.83c-8.37-8.03-13.86-18.96-15.33-30.47
	c-0.39-3.21-0.37-7.95,3.41-9.18c8-1.94,20.77,13.73,25.52,19.35c0.02,0.01-1.4,0.09-1.4,0.09c6.59-12.11,14.51-23.38,22.84-34.33
	c2.8-3.63,5.67-7.22,8.75-10.65C188.65,276.06,196.36,281.83,195.83,282.74L195.83,282.74z"/>
<g>
	<path class="st0" d="M227.53,313.85c17.51-24.9,18.42-85.13,17.52-115.27c-1.23-41.21,22.83-77.72,38.56-97.07
		c-34.29-9-82.5,21.74-100.59,87.36c-18.18,65.96,4.86,114.42,39.19,123.88C223.98,313.23,225.76,313.6,227.53,313.85z"/>
	<path class="st0" d="M293.1,105.19c-6.18,6.23-14.18,15.48-20.42,26.75c-11.83,21.39-20.48,53.7-18.66,76.46
		c1.82,22.76,2.82,41.19-4.02,71.96c-2.7,12.15-4.41,23.73-8.56,33.09c27.53-5.51,53.22-38.76,67.99-92.35
		C325.91,161.3,319.94,119.52,293.1,105.19z"/>
</g>
<path class="st1" d="M249.6,139.86c0,8.87-5.49,16.06-12.27,16.06c-6.78,0-12.27-7.19-12.27-16.06"/>
<path class="st2" d="M225.06,141.46c0-8.87,5.49-16.06,12.27-16.06c6.78,0,12.27,7.19,12.27,16.06"/>
<path class="st3" d="M231.03,141.66c0-5.39,2.91-9.77,6.5-9.77c3.59,0,6.5,4.37,6.5,9.77"/>
<path class="st1" d="M289.06,159.52c0,8.87-5.49,16.06-12.27,16.06s-12.27-7.19-12.27-16.06"/>
<path class="st2" d="M264.52,161.11c0-8.87,5.49-16.06,12.27-16.06s12.27,7.19,12.27,16.06"/>
<path class="st3" d="M270.49,161.32c0-5.39,2.91-9.77,6.5-9.77c3.59,0,6.5,4.37,6.5,9.77"/>
<g>
	<path class="st0" d="M428.9,321.97c6.41-26.54-12.66-77.08-23.34-101.94c-14.6-33.97-6.55-72.35,0.21-93.68
		c-31.57,3.79-61.67,45.31-55.15,106c6.55,61.01,41.73,93.85,73.48,90.44C425.74,322.63,427.34,322.34,428.9,321.97z"/>
	<path class="st0" d="M414.89,126.3c-3.1,7.23-6.74,17.58-8.23,29.04c-2.83,21.74,0.6,51.55,9.61,69.93
		c9.01,18.38,15.92,33.44,20.34,61.36c1.75,11.03,4.14,21.25,3.76,30.43c21.15-13.66,31.63-49.86,26.31-99.43
		C460.74,162.31,442,129.42,414.89,126.3z"/>
</g>
<path class="st1" d="M390.02,169.55c2.92,7.4,0.71,15.21-4.95,17.44s-12.6-1.96-15.52-9.36"/>
<path class="st2" d="M370.08,178.96c-2.92-7.4-0.71-15.21,4.95-17.44c5.65-2.23,12.6,1.96,15.52,9.36"/>
<path class="st3" d="M375.12,177.17c-1.78-4.5-0.79-9.11,2.2-10.29s6.86,1.51,8.64,6.01"/>
<path class="st1" d="M429.41,172.96c2.92,7.4,0.71,15.21-4.95,17.44c-5.65,2.23-12.6-1.96-15.52-9.36"/>
<path class="st2" d="M409.47,182.37c-2.92-7.4-0.71-15.21,4.95-17.44c5.65-2.23,12.6,1.96,15.52,9.36"/>
<path class="st3" d="M414.51,180.57c-1.78-4.5-0.79-9.11,2.2-10.29c2.99-1.18,6.86,1.51,8.64,6.01"/>
<polyline class="st0" points="336.58,262.27 332.16,256.16 354.26,227.16 356.93,224.37 362.72,229.61 "/>
<g>
	<polyline class="st0" points="366.19,333.87 384.06,286.52 392.76,287.99 373.74,339.1 	"/>
	<path class="st0" d="M372.23,337.03c0,0,1.53,0.65,1.84,1c3.1,3.5,6.45,7.27,8.92,11.41c2.73,4.18,4.64,12.79-2.55,13.75
		c-2.6,0.22-4.9,0.25-7.41-0.14c-7.09-1.48-12.65-6.8-16.94-12.29c-5.59-7.68-10.2-16.1-11-25.88c-0.2-9.16,7.1-7.53,12.18-2.98
		c3.68,3.07,6.72,6.6,9.37,10.46C367.26,333.22,372.24,337.14,372.23,337.03z"/>
</g>
<path class="st0" d="M456.75,291.47c2.97,13.18,11.28,35.13,28.75,31.53c1.14-0.24,3.16,9.84,2.81,10.94
	c-2.6,8.62-0.53-4.67-3.02-9.98c0.04,0.04,0.2,0.04,0.17,0.03c-0.79-0.18-1.82,0.28-3.3,0.97c-1.4,0.69-3.56,1.13-5.31,0.51
	c-1.76-0.53-3.1-1.54-4.31-2.54C463.23,315.3,456.43,303.76,456.75,291.47c0.01-1.11,1.72-1.2,1.79-0.05
	c0.42,11.71,6.9,22.05,15.87,29.28c1.06,0.85,2.16,1.6,3.25,1.9c2.82,0.85,5.28-2.4,8.35-1.69c5.26,1.5,5.11,18.56,4.33,23.12
	c-0.98,9.08-6.36,19.53-16.11,22.13c-4.91,1.66-13.45,2.55-14.47-4.49c-0.48-5.17,1.78-9.63,3.6-14.03
	c2.42-5.46,5.17-10.67,7.17-15.95c0-0.03,1.34,2.69,1.34,2.68c-14.75-5.84-21.28-22.12-23.67-36.71
	C448.05,296.52,456.75,291.47,456.75,291.47z"/>
<path class="st0" d="M461.69,236.97c2.06,2.59,5.01,6.74,7.01,9.44c4.43,6.17,16.46,22.55,20.9,28.99
	c2.88,8.2-23.12-27.11-28.6-38.43c-0.25-0.51,4.12-5.56,4.49-5.81c0.37-0.25,0.9-0.25,1.23,0.24c8.54,12.59,17.65,27.31,27.23,37.95
	c-0.11,0-0.22,0.03-0.31,0.08c-0.05,0.03,0.07-0.02,0.1-0.03c2.67-0.77,5.38,0.21,7.82,1.15c6,2.37,9.02,8.08,5.33,13.96
	c-8.62,14.51-17.61-0.45-20.02-8.28c-4.36-6.31-15.6-22.54-19.84-28.62c-1.03-1.48-3.97-5.68-4.99-7.13c0,0-1.61-2.24-1.61-2.24
	l-0.14-0.19C459.64,237.15,460.96,236.08,461.69,236.97L461.69,236.97z"/>
<path class="st0" d="M328.55,277.69c-2.88,1.32-4.92,2.19-7.41,1.63c-2.48-0.56-2.77-3.91-2.15-6.64s2.61-6.76,4.08-5.55
	C327.98,271.18,330.5,276.79,328.55,277.69z"/>
<path class="st4" d="M200.81,220.31c11.48,5.24,25.87,4.47,35.26-4.48c1.77-1.47,4.05,1.24,2.26,2.73
	c-10.42,9.06-25.94,9.66-37.95,3.5c0,0-0.39-0.31-0.39-0.31C199.23,221.18,199.95,219.94,200.81,220.31L200.81,220.31z"/>
<path class="st4" d="M225.2,183.77c-4.16-0.73-6.76,1.39-6.05,5.79c0.41,3.47,1.56,7.42,4.92,3.11c1.25-1.55,3.52,0.52,2.09,1.9
	c-3.27,3.42-7.3,3.35-8.43-1.75c-1.51-6.35,0.28-11.74,7.8-10.83C226.74,182.19,226.4,184.04,225.2,183.77L225.2,183.77z"/>
<path class="st4" d="M390.3,215.17c-3.43,2.32-4.27,7.08-2.13,10.61c0.2,0.41,0.03,0.9-0.38,1.1c-0.38,0.19-0.84,0.04-1.06-0.31
	c-0.62-1.02-1.21-2.1-1.53-3.31c-1.15-3.77,0.42-7.86,3.41-10.39c0.6-0.51,1.51-0.44,2.02,0.16
	C391.2,213.68,391.03,214.71,390.3,215.17L390.3,215.17z"/>
<path class="st4" d="M373.55,233.28c4.45,4.82,9.13,9.35,14.89,12.31c2,0.96,4.12,1.73,6.23,1.34c3.19-0.84,7.07-2.18,9.16-4.86
	c0.79-2.09,4.64-1.2,3.68,1.63c-2.03,3.3-6.28,4.6-9.74,5.66c-10.02,3.24-19.45-8.23-25.44-14.75
	C371.42,233.76,372.64,232.38,373.55,233.28L373.55,233.28z"/>
<path class="st5" d="M315.17,131.11l-77.74-23.13c-2.73-0.81-4.28-3.68-3.47-6.41l3.11-10.44c0.81-2.73,3.68-4.28,6.41-3.47
	l77.74,23.13c2.73,0.81,4.28,3.68,3.47,6.41l-3.11,10.44C320.76,130.37,317.89,131.92,315.17,131.11z"/>
<path class="st5" d="M301.5,111.67l-43.16-13.2c-2.77-0.85-4.33-3.78-3.49-6.56l13.21-43.2c0.85-2.77,3.78-4.33,6.56-3.49
	l43.16,13.2c2.77,0.85,4.33,3.78,3.49,6.56l-13.21,43.2C307.21,110.95,304.28,112.52,301.5,111.67z"/>
<g>
	
		<ellipse transform="matrix(0.228 -0.9737 0.9737 0.228 210.0976 495.2771)" class="st6" cx="417.38" cy="115.15" rx="8.49" ry="4.12"/>
	
		<ellipse transform="matrix(0.7071 -0.7071 0.7071 0.7071 39.8748 334.7943)" class="st6" cx="424.07" cy="119.26" rx="8.49" ry="4.12"/>
	
		<ellipse transform="matrix(0.7071 -0.7071 0.7071 0.7071 20.3782 327.5224)" class="st6" cx="405.54" cy="139.16" rx="8.49" ry="4.12"/>
	<ellipse transform="matrix(0.866 -0.5 0.5 0.866 -3.6764 220.0939)" class="st6" cx="408.86" cy="116.91" rx="4.12" ry="8.49"/>
	<ellipse transform="matrix(0.5 -0.866 0.866 0.5 95.1427 410.1816)" class="st6" cx="402.8" cy="122.69" rx="4.12" ry="8.49"/>
	
		<ellipse transform="matrix(0.9989 -0.0471 0.0471 0.9989 -5.7663 19.1141)" class="st6" cx="402.28" cy="131.79" rx="8.49" ry="4.12"/>
	
		<ellipse transform="matrix(0.0641 -0.9979 0.9979 0.0641 245.0613 544.6091)" class="st6" cx="412.89" cy="141.65" rx="8.49" ry="4.12"/>
	
		<ellipse transform="matrix(0.8713 -0.4908 0.4908 0.8713 -14.3689 224.1812)" class="st6" cx="420.18" cy="139.48" rx="4.12" ry="8.49"/>
	
		<ellipse transform="matrix(0.5091 -0.8607 0.8607 0.5091 94.1306 432.5678)" class="st6" cx="426.3" cy="133.76" rx="4.12" ry="8.49"/>
	
		<ellipse transform="matrix(0.9993 -0.0366 0.0366 0.9993 -4.3198 15.7176)" class="st6" cx="427.41" cy="125.92" rx="8.49" ry="4.12"/>
	<ellipse class="st7" cx="415.06" cy="128.87" rx="8.49" ry="9.18"/>
</g>
</svg>
